<svg xmlns="http://www.w3.org/2000/svg" viewBox="0 0 4744 1356" width="296" height="85">
  <defs>
    <linearGradient id="g0" x1="27.77" y1="630.23" x2="555.52" y2="1157.48" gradientUnits="userSpaceOnUse">
      <stop offset="0" stop-color="#4C75FF"></stop>
      <stop offset="0.31" stop-color="#0B66FF"></stop>
      <stop offset="0.42" stop-color="#0064FF"></stop>
      <stop offset="0.52" stop-color="#0067FF"></stop>
      <stop offset="0.73" stop-color="#0074FF"></stop>
      <stop offset="1" stop-color="#0084FF"></stop>
    </linearGradient>
    <linearGradient id="g1" x1="498.59" y1="268" x2="498.59" y2="1006.92" gradientUnits="userSpaceOnUse">
      <stop offset="0.01" stop-color="#25B9FF"></stop>
      <stop offset="0.63" stop-color="#07BEFF"></stop>
      <stop offset="0.75" stop-color="#00BEFF"></stop>
      <stop offset="1" stop-color="#0092FF"></stop>
    </linearGradient>
    <linearGradient id="g9" x1="176" y1="688" x2="1064" y2="688" gradientUnits="userSpaceOnUse">
      <stop offset="0" stop-color="#697DFF"></stop>
      <stop offset="0.24" stop-color="#CF94FF"></stop>
      <stop offset="0.34" stop-color="#ED9BFF"></stop>
      <stop offset="0.46" stop-color="#FF99E6"></stop>
      <stop offset="0.58" stop-color="#FF859C"></stop>
      <stop offset="0.72" stop-color="#FF5A00"></stop>
      <stop offset="1" stop-color="#FF5A00"></stop>
    </linearGradient>
    <linearGradient id="g11" x1="866.5" y1="268" x2="866.5" y2="885" gradientUnits="userSpaceOnUse">
      <stop offset="0.02" stop-color="#76B0FF"></stop>
      <stop offset="0.27" stop-color="#9DACFF"></stop>
      <stop offset="0.64" stop-color="#F3A1FF"></stop>
      <stop offset="0.82" stop-color="#FF97E8"></stop>
      <stop offset="1" stop-color="#FF8EBD"></stop>
    </linearGradient>
    <linearGradient id="g12" x1="550" y1="326" x2="812.5" y2="326" gradientUnits="userSpaceOnUse">
      <stop stop-color="#29B8FF"></stop>
      <stop offset="1" stop-color="#6DB1FF"></stop>
    </linearGradient>
    <radialGradient id="rf4" fx="50%" fy="0%" cx="100%" cy="5%" r="95%">
      <stop offset="0%" stop-color="#FF5A00"></stop>
      <stop offset="100%" stop-color="#FF8EBD"></stop>
    </radialGradient>
    <mask id="sym">
      <path d="M480 1147C515 1147 546 1119 546 1075V735H451V994C451 1002 444 1004 439 999L185 748C179 741 182 735 191 735H819V640H111C66 640 38 671 38 707C38 724 45 742 62 759L427 1124C443 1141 462 1147 480 1147ZM1064 1131C1199 1131 1310 1020 1310 885C1310 750 1199 640 1064 640H914V735H1064C1145 735 1215 801 1215 885C1215 969 1146 1036 1064 1036C982 1036 914 967 914 885V360C914 313 878 278 832 278H534C486 278 451 314 451 361V640H546V384C546 378 550 373 556 373H808C814 373 819 378 819 384V885C819 1020 929 1131 1064 1131Z" fill="white"></path>
    </mask>
  </defs>

  
  <g mask="url(#sym)">
    <rect x="117" y="630" width="330" height="116" fill="#216BFF"></rect>
    
    <path d="M556 1075C556 1098 548 1119 533 1134C519 1149 500 1157 480 1157C457 1157 436 1148 420 1131L55 766C37 748 28 728 28 707C28 686 36 667 51 653C66 638 87 630 111 630H196V745L441 987H556V1075Z" fill="url(#g0)"></path>
    
    <path d="M441 996V361C441 308 481 268 534 268H556V1007L441 996Z" fill="url(#g1)"></path>
    
    <path d="M815 268H550V384H815V268Z" fill="url(#g12)"></path>
    
    <path d="M809 268V885H924V360C924 335 915 311 897 294C880 277 857 268 832 268H809Z" fill="url(#g11)"></path>
    
    <path d="M1064 630H176L186 745H1064V630Z" fill="url(#g9)"></path>
    
    <path d="M965 984C939 957 924 922 924 885V871H809V885C809 953 836 1017 884 1066C932 1114 996 1141 1064 1141C1132 1141 1196 1114 1245 1066C1293 1017 1320 953 1320 885C1320 817 1293 753 1245 705C1196 657 1132 630 1064 630H900V745H1064C1101 745 1136 759 1163 786C1190 812 1205 847 1205 885C1205 961 1140 1026 1064 1026C1027 1026 992 1011 965 984Z" fill="url(#rf4)"></path>
  </g>

  
  <path fill="#171719" d="M4424 1008C4487 1008 4540 981 4569 939V998H4673V278H4569V552C4540 513 4486 488 4423 488C4278 488 4167 605 4167 748C4167 891 4279 1008 4424 1008ZM4424 908C4339 908 4269 835 4269 748C4269 661 4339 588 4424 588C4509 588 4579 661 4579 748C4579 835 4509 908 4424 908ZM3729 706C3733 642 3796 581 3874 581C3952 581 4011 642 4015 706H3729ZM3883 1008C3984 1008 4072 950 4108 870L4025 842C4001 885 3945 915 3884 915C3796 915 3733 861 3729 788H4114C4134 620 4033 488 3883 488C3733 488 3627 595 3627 748C3627 901 3732 1008 3883 1008ZM3510 1007C3541 1007 3572 1000 3592 989V898C3568 910 3547 915 3533 915C3493 915 3473 891 3473 842V580H3592V498H3473V398H3369V498H3289V580H3369V846C3369 947 3421 1007 3510 1007ZM2797 998H2901V714C2901 627 2950 578 3021 578C3092 578 3140 627 3140 714V998H3244V708C3244 567 3179 488 3053 488C2986 488 2926 515 2901 562V498H2797V998ZM2458 908C2373 908 2303 835 2303 748C2303 661 2373 588 2458 588C2543 588 2613 661 2613 748C2613 835 2543 908 2458 908ZM2458 1008C2521 1008 2574 981 2603 939V998H2707V498H2603V552C2574 513 2520 488 2457 488C2312 488 2201 605 2201 748C2201 891 2313 1008 2458 1008ZM1636 998H1735L1828 718L1921 998H2020L2196 498H2087L1972 850L1867 498H1789L1684 850L1569 498H1460L1636 998Z"></path>
</svg>